<svg width="94" height="94" viewBox="0 0 94 94" fill="none" xmlns="http://www.w3.org/2000/svg">
  <path d="M85.0778 46.8651L85.8287 46.1122C96.3629 35.5779 96.3639 18.4367 85.8287 7.90146C75.2934 -2.63382 58.1522 -2.63382 47.6169 7.90146L46.865 8.65234L46.1141 7.90146C35.5788 -2.63382 18.4366 -2.63382 7.90133 7.90146C-2.63395 18.4367 -2.63395 35.5779 7.90237 46.1122L8.65325 46.8651L7.90237 47.616C-2.63395 58.1513 -2.63395 75.2914 7.90133 85.8288C18.4377 96.363 35.5799 96.363 46.1141 85.8288L46.865 85.0769L47.6169 85.8288C58.1522 96.363 75.2934 96.363 85.8287 85.8288C96.3639 75.2914 96.3629 58.1513 85.8287 47.616L85.0778 46.8651ZM50.9433 11.2289C59.6435 2.52863 73.7999 2.52863 82.4991 11.2289C91.1994 19.9291 91.1994 34.0866 82.5002 42.7858L57.1691 68.1169C55.2299 70.0571 54.7571 72.3587 57.0556 74.6843L57.921 75.5237C62.7741 80.3768 70.6704 80.3768 75.5235 75.5237C80.3767 70.6705 80.3767 62.7732 75.5246 57.9201L74.7727 57.1682L76.5962 55.3456L77.3482 56.0976C83.2084 61.9557 83.2084 71.4901 77.3482 77.3483C71.49 83.2064 61.9545 83.2064 56.0964 77.3483C56.0964 77.3483 55.7277 77.0379 55.2289 76.5359C54.7706 76.0704 50.206 71.4339 55.3455 66.2933L80.6756 40.9622C88.3708 33.268 88.3708 20.7488 80.6756 13.0535C72.9814 5.36033 60.4632 5.36033 52.769 13.0545L52.016 13.8054L50.1914 11.9818L50.9433 11.2289ZM72.1961 72.1973C69.177 75.2144 64.2655 75.2144 61.2463 72.1973L60.4955 71.4454L71.4442 60.4966L72.1961 61.2465C75.2142 64.2667 75.2142 69.1771 72.1961 72.1973ZM11.2288 11.2289C19.929 2.52863 34.0864 2.52863 42.7867 11.2289L68.1157 36.5579L66.2911 38.3846L40.961 13.0535C33.2658 5.35929 20.7486 5.35929 13.0544 13.0535C5.35916 20.7477 5.35916 33.2669 13.0544 40.9612L13.8053 41.7131L11.9807 43.5377L11.2288 42.7868C2.5285 34.0866 2.5285 19.9302 11.2288 11.2289ZM60.4965 22.2838L61.2474 21.5319C64.2655 18.5138 69.177 18.5138 72.1972 21.5319C75.2142 24.55 75.2142 29.4605 72.1972 32.4817L71.4452 33.2326L60.4965 22.2838ZM20.6205 55.505L18.2054 57.919C13.3512 62.7722 13.3523 70.6695 18.2054 75.5226C23.0575 80.3758 30.9548 80.3758 35.8079 75.5226L36.5599 74.7707C40.2685 71.0642 35.8048 67.3723 33.6574 65.2238L32.2587 63.8136L25.6111 57.1661L27.4358 55.3435L36.2776 64.1844L36.9754 64.8842C43.4761 71.3818 38.8885 76.0902 38.3845 76.5943L37.6326 77.3462C31.7734 83.2075 22.24 83.2043 16.3798 77.3462C10.5216 71.4881 10.5216 61.9536 16.3808 56.0934L41.713 30.7633L43.5365 32.59L30.9236 45.2009L20.6205 55.505ZM22.2837 60.4977L33.2324 71.4433L32.4805 72.1962C29.4614 75.2133 24.5509 75.2154 21.5328 72.1962C18.5147 69.1781 18.5147 64.2656 21.5328 61.2475L22.2837 60.4977ZM46.8639 35.9164L57.8116 46.8651L46.8639 57.8118L35.9152 46.8651L46.8639 35.9164ZM35.809 18.2066C30.9558 13.3514 23.0585 13.3534 18.2064 18.2066C13.3533 23.0576 13.3523 30.956 18.2064 35.8091L18.9573 36.561L17.1327 38.3846L16.3808 37.6337C10.5216 31.7735 10.5227 22.2401 16.3808 16.3799C22.241 10.5217 31.7744 10.5207 37.6336 16.3799L62.9647 41.711L61.1401 43.5356L35.809 18.2066ZM33.2324 22.2849L22.2837 33.2326L21.5328 32.4817C18.5137 29.4625 18.5137 24.5511 21.5318 21.5319C24.5499 18.5138 29.4614 18.5138 32.4805 21.534L33.2324 22.2849ZM82.4991 82.5003C73.7999 91.2006 59.6435 91.2006 50.9433 82.5003L49.9966 81.6536C49.7904 81.4464 48.046 79.7134 46.7608 77.0359C45.5621 79.5666 43.9708 81.3016 43.5386 81.7484L42.7867 82.5003C34.0864 91.2006 19.929 91.2006 11.2288 82.5003C2.5285 73.8001 2.5285 59.6437 11.2288 50.9413L36.5599 25.6123L38.3845 27.438L13.0544 52.768C5.35916 60.4633 5.35916 72.9815 13.0544 80.6757C20.7486 88.371 33.2668 88.371 40.961 80.6757L41.7536 79.8821C43.7511 77.8086 45.2591 74.6082 45.3705 71.312C45.3705 71.2152 45.3778 71.1183 45.3799 71.0236C45.4028 68.447 44.5592 65.8361 42.4013 63.6762C41.0641 62.3389 38.3814 59.6562 38.3814 59.6562L37.995 59.2448L30.7653 52.0161L32.5899 50.1905L42.6846 60.2852L43.5313 61.1475C45.0289 62.6462 46.0922 64.1375 46.8233 65.5935C47.5576 64.1896 48.599 62.7503 50.0539 61.2944L50.1935 61.1402L75.5256 35.8102C80.3777 30.957 80.3777 23.0587 75.5246 18.2055C70.6725 13.3524 62.7752 13.3524 57.922 18.2055L57.1701 18.9585L55.3465 17.1339L56.0974 16.3809C61.9556 10.5228 71.4911 10.5228 77.3492 16.3809C83.2094 22.2411 83.2094 31.7746 77.3492 37.6327L52.0149 62.9649L51.2162 63.7668C46.1464 68.8365 48.1376 76.0965 51.8452 79.8019L52.7679 80.6757C60.4621 88.371 72.9803 88.371 80.6745 80.6757C88.3698 72.9815 88.3698 60.4633 80.6745 52.768L79.9226 52.0161L81.7472 50.1905L82.4991 50.9434C91.1994 59.6437 91.1994 73.799 82.4991 82.5003Z" fill="#C4AFF0"/>
</svg>
